<mxfile host="app.diagrams.net" agent="Mozilla/5.0 (Windows NT 10.0; Win64; x64) AppleWebKit/537.36 (KHTML, like Gecko) Chrome/127.0.0.0 Safari/537.36" version="24.7.7">
  <diagram name="Page-1" id="UtKxj3-XZ-oOf6XHosEo">
    <mxGraphModel dx="1257" dy="723" grid="1" gridSize="10" guides="1" tooltips="1" connect="1" arrows="1" fold="1" page="1" pageScale="1" pageWidth="850" pageHeight="1100" math="0" shadow="0">
      <root>
        <mxCell id="0" />
        <mxCell id="1" parent="0" />
        <mxCell id="vTxj29_7Es95CBjT8_d--8" style="edgeStyle=orthogonalEdgeStyle;rounded=0;orthogonalLoop=1;jettySize=auto;html=1;" parent="1" source="vTxj29_7Es95CBjT8_d--1" target="vTxj29_7Es95CBjT8_d--4" edge="1">
          <mxGeometry relative="1" as="geometry" />
        </mxCell>
        <mxCell id="vTxj29_7Es95CBjT8_d--1" value="For n = 1 to 8" style="rhombus;whiteSpace=wrap;html=1;" parent="1" vertex="1">
          <mxGeometry x="171.25" y="180" width="137.5" height="80" as="geometry" />
        </mxCell>
        <mxCell id="vTxj29_7Es95CBjT8_d--6" style="edgeStyle=orthogonalEdgeStyle;rounded=0;orthogonalLoop=1;jettySize=auto;html=1;" parent="1" source="vTxj29_7Es95CBjT8_d--2" target="vTxj29_7Es95CBjT8_d--3" edge="1">
          <mxGeometry relative="1" as="geometry" />
        </mxCell>
        <mxCell id="vTxj29_7Es95CBjT8_d--2" value="Mulai" style="ellipse;whiteSpace=wrap;html=1;" parent="1" vertex="1">
          <mxGeometry x="202.5" y="40" width="75" height="40" as="geometry" />
        </mxCell>
        <mxCell id="vTxj29_7Es95CBjT8_d--7" style="edgeStyle=orthogonalEdgeStyle;rounded=0;orthogonalLoop=1;jettySize=auto;html=1;" parent="1" source="vTxj29_7Es95CBjT8_d--3" target="vTxj29_7Es95CBjT8_d--1" edge="1">
          <mxGeometry relative="1" as="geometry" />
        </mxCell>
        <mxCell id="vTxj29_7Es95CBjT8_d--3" value="Sensor Slot Parkir Membaca Objek (nilaidistance n - 8)" style="rounded=0;whiteSpace=wrap;html=1;" parent="1" vertex="1">
          <mxGeometry x="180" y="100" width="120" height="60" as="geometry" />
        </mxCell>
        <mxCell id="vTxj29_7Es95CBjT8_d--9" style="edgeStyle=orthogonalEdgeStyle;rounded=0;orthogonalLoop=1;jettySize=auto;html=1;entryX=0.5;entryY=0;entryDx=0;entryDy=0;" parent="1" source="vTxj29_7Es95CBjT8_d--4" target="vTxj29_7Es95CBjT8_d--5" edge="1">
          <mxGeometry relative="1" as="geometry" />
        </mxCell>
        <mxCell id="vTxj29_7Es95CBjT8_d--20" style="edgeStyle=orthogonalEdgeStyle;rounded=0;orthogonalLoop=1;jettySize=auto;html=1;entryX=0;entryY=0.5;entryDx=0;entryDy=0;" parent="1" source="vTxj29_7Es95CBjT8_d--4" target="vTxj29_7Es95CBjT8_d--17" edge="1">
          <mxGeometry relative="1" as="geometry" />
        </mxCell>
        <mxCell id="vTxj29_7Es95CBjT8_d--4" value="Jarak sensor (distance n) dengan objek &amp;lt; 6 cm?" style="rhombus;whiteSpace=wrap;html=1;" parent="1" vertex="1">
          <mxGeometry x="137.5" y="280" width="205" height="180" as="geometry" />
        </mxCell>
        <mxCell id="vTxj29_7Es95CBjT8_d--13" style="edgeStyle=orthogonalEdgeStyle;rounded=0;orthogonalLoop=1;jettySize=auto;html=1;entryX=0.5;entryY=0;entryDx=0;entryDy=0;" parent="1" source="vTxj29_7Es95CBjT8_d--5" target="vTxj29_7Es95CBjT8_d--12" edge="1">
          <mxGeometry relative="1" as="geometry" />
        </mxCell>
        <mxCell id="vTxj29_7Es95CBjT8_d--14" style="edgeStyle=orthogonalEdgeStyle;rounded=0;orthogonalLoop=1;jettySize=auto;html=1;entryX=0;entryY=0.5;entryDx=0;entryDy=0;" parent="1" source="vTxj29_7Es95CBjT8_d--5" target="vTxj29_7Es95CBjT8_d--1" edge="1">
          <mxGeometry relative="1" as="geometry">
            <Array as="points">
              <mxPoint x="240" y="600" />
              <mxPoint x="110" y="600" />
              <mxPoint x="110" y="220" />
            </Array>
          </mxGeometry>
        </mxCell>
        <mxCell id="vTxj29_7Es95CBjT8_d--5" value="Mengirimkan data ke firebase&lt;div&gt;(kirim data ke firebase dengan alamat: sensor/letak n = true,&lt;/div&gt;&lt;div&gt;&lt;br&gt;&lt;/div&gt;&lt;div&gt;nilaidistance n = 1&lt;/div&gt;" style="rounded=0;whiteSpace=wrap;html=1;" parent="1" vertex="1">
          <mxGeometry x="150" y="490" width="180" height="90" as="geometry" />
        </mxCell>
        <mxCell id="vTxj29_7Es95CBjT8_d--30" style="edgeStyle=orthogonalEdgeStyle;rounded=0;orthogonalLoop=1;jettySize=auto;html=1;entryX=0.5;entryY=0;entryDx=0;entryDy=0;" parent="1" source="vTxj29_7Es95CBjT8_d--12" target="vTxj29_7Es95CBjT8_d--15" edge="1">
          <mxGeometry relative="1" as="geometry" />
        </mxCell>
        <mxCell id="vTxj29_7Es95CBjT8_d--12" value="Hitung slot yang tersisa&lt;div&gt;slotdiisi n =&amp;nbsp;&lt;span style=&quot;color: rgb(32, 33, 34); font-family: sans-serif; font-size: 16px; text-align: start; background-color: rgb(255, 255, 255);&quot;&gt;Î£&amp;nbsp;&lt;/span&gt;&lt;span style=&quot;background-color: initial;&quot;&gt;nilaidistance n&lt;/span&gt;&lt;span style=&quot;background-color: initial;&quot;&gt;&amp;nbsp;&lt;/span&gt;&lt;/div&gt;" style="rounded=0;whiteSpace=wrap;html=1;" parent="1" vertex="1">
          <mxGeometry x="150" y="620" width="180" height="70" as="geometry" />
        </mxCell>
        <mxCell id="vTxj29_7Es95CBjT8_d--31" style="edgeStyle=orthogonalEdgeStyle;rounded=0;orthogonalLoop=1;jettySize=auto;html=1;entryX=0.5;entryY=0;entryDx=0;entryDy=0;" parent="1" source="vTxj29_7Es95CBjT8_d--15" target="vTxj29_7Es95CBjT8_d--16" edge="1">
          <mxGeometry relative="1" as="geometry" />
        </mxCell>
        <mxCell id="vTxj29_7Es95CBjT8_d--15" value="Hitung slot yang tersedia&lt;div&gt;&lt;span style=&quot;background-color: initial;&quot;&gt;slottersedia n = totalslot - slotdiisi n&lt;/span&gt;&lt;/div&gt;" style="rounded=0;whiteSpace=wrap;html=1;" parent="1" vertex="1">
          <mxGeometry x="145" y="720" width="190" height="70" as="geometry" />
        </mxCell>
        <mxCell id="vTxj29_7Es95CBjT8_d--33" style="edgeStyle=orthogonalEdgeStyle;rounded=0;orthogonalLoop=1;jettySize=auto;html=1;entryX=0.5;entryY=0;entryDx=0;entryDy=0;" parent="1" source="vTxj29_7Es95CBjT8_d--16" target="vTxj29_7Es95CBjT8_d--32" edge="1">
          <mxGeometry relative="1" as="geometry" />
        </mxCell>
        <mxCell id="vTxj29_7Es95CBjT8_d--16" value="Mengirimkan data slot tersedia ke firebase (kirim data ke firebase dengan alamat: slottersedia n" style="rounded=0;whiteSpace=wrap;html=1;" parent="1" vertex="1">
          <mxGeometry x="145" y="820" width="190" height="70" as="geometry" />
        </mxCell>
        <mxCell id="ZwajuVlBELQ2x4BCTlh1-1" style="edgeStyle=orthogonalEdgeStyle;rounded=0;orthogonalLoop=1;jettySize=auto;html=1;entryX=0.5;entryY=0;entryDx=0;entryDy=0;" edge="1" parent="1" source="vTxj29_7Es95CBjT8_d--17" target="vTxj29_7Es95CBjT8_d--12">
          <mxGeometry relative="1" as="geometry">
            <Array as="points">
              <mxPoint x="493" y="600" />
              <mxPoint x="240" y="600" />
            </Array>
          </mxGeometry>
        </mxCell>
        <mxCell id="vTxj29_7Es95CBjT8_d--17" value="Mengirimkan data ke firebase&lt;div&gt;(kirim data ke firebase dengan alamat: sensor/letak n = false,&lt;/div&gt;&lt;div&gt;&lt;br&gt;&lt;/div&gt;&lt;div&gt;nilaidistance n = 0&lt;/div&gt;" style="rounded=0;whiteSpace=wrap;html=1;" parent="1" vertex="1">
          <mxGeometry x="402.5" y="325" width="180" height="90" as="geometry" />
        </mxCell>
        <mxCell id="vTxj29_7Es95CBjT8_d--18" value="Iya" style="text;html=1;align=center;verticalAlign=middle;whiteSpace=wrap;rounded=0;" parent="1" vertex="1">
          <mxGeometry x="230" y="450" width="60" height="30" as="geometry" />
        </mxCell>
        <mxCell id="vTxj29_7Es95CBjT8_d--21" value="Tidak" style="text;html=1;align=center;verticalAlign=middle;whiteSpace=wrap;rounded=0;" parent="1" vertex="1">
          <mxGeometry x="342.5" y="340" width="60" height="30" as="geometry" />
        </mxCell>
        <mxCell id="vTxj29_7Es95CBjT8_d--32" value="A" style="ellipse;whiteSpace=wrap;html=1;aspect=fixed;" parent="1" vertex="1">
          <mxGeometry x="220" y="920" width="40" height="40" as="geometry" />
        </mxCell>
        <mxCell id="ZwajuVlBELQ2x4BCTlh1-2" value="" style="endArrow=classic;html=1;rounded=0;" edge="1" parent="1">
          <mxGeometry width="50" height="50" relative="1" as="geometry">
            <mxPoint x="310" y="600" as="sourcePoint" />
            <mxPoint x="240" y="600" as="targetPoint" />
          </mxGeometry>
        </mxCell>
      </root>
    </mxGraphModel>
  </diagram>
</mxfile>
